<?xml version="1.0" standalone="no"?><svg xmlns="http://www.w3.org/2000/svg" viewBox="0 0 1440 320"><path fill="#fca311" fill-opacity="1" d="M0,160L40,176C80,192,160,224,240,218.7C320,213,400,171,480,176C560,181,640,235,720,240C800,245,880,203,960,192C1040,181,1120,203,1200,213.3C1280,224,1360,224,1400,224L1440,224L1440,320L1400,320C1360,320,1280,320,1200,320C1120,320,1040,320,960,320C880,320,800,320,720,320C640,320,560,320,480,320C400,320,320,320,240,320C160,320,80,320,40,320L0,320Z"></path></svg>